<svg version="1.1" xmlns="http://www.w3.org/2000/svg" xmlns:xlink="http://www.w3.org/1999/xlink" width="889" height="155"><defs/><g><text fill="#eeeeee" stroke="none" font-family="Arial" font-size="24px" font-style="normal" font-weight="normal" text-decoration="none" x="0" y="0"></text><text fill="#eeeeee" stroke="none" font-family="Arial" font-size="24px" font-style="normal" font-weight="normal" text-decoration="none" x="0" y="30"></text><text fill="#eeeeee" stroke="none" font-family="Arial" font-size="24px" font-style="normal" font-weight="normal" text-decoration="none" x="0" y="60"></text><text fill="#eeeeee" stroke="none" font-family="Arial" font-size="24px" font-style="normal" font-weight="normal" text-decoration="none" x="0" y="90"></text><text fill="#eeeeee" stroke="none" font-family="Arial" font-size="24px" font-style="normal" font-weight="normal" text-decoration="none" x="0" y="120"></text><text fill="#eeeeee" stroke="none" font-family="Arial" font-size="24px" font-style="normal" font-weight="normal" text-decoration="none" x="0" y="150"></text><text fill="#eeeeee" stroke="none" font-family="Arial" font-size="24px" font-style="normal" font-weight="normal" text-decoration="none" x="200" y="0"></text><text fill="#eeeeee" stroke="none" font-family="Arial" font-size="24px" font-style="normal" font-weight="normal" text-decoration="none" x="200" y="30"></text><text fill="#eeeeee" stroke="none" font-family="Arial" font-size="24px" font-style="normal" font-weight="normal" text-decoration="none" x="200" y="60"></text><text fill="#eeeeee" stroke="none" font-family="Arial" font-size="24px" font-style="normal" font-weight="normal" text-decoration="none" x="200" y="90"></text><text fill="#eeeeee" stroke="none" font-family="Arial" font-size="24px" font-style="normal" font-weight="normal" text-decoration="none" x="200" y="120"></text><text fill="#eeeeee" stroke="none" font-family="Arial" font-size="24px" font-style="normal" font-weight="normal" text-decoration="none" x="200" y="150"></text><text fill="#eeeeee" stroke="none" font-family="Arial" font-size="24px" font-style="normal" font-weight="normal" text-decoration="none" x="400" y="0"></text><text fill="#eeeeee" stroke="none" font-family="Arial" font-size="24px" font-style="normal" font-weight="normal" text-decoration="none" x="400" y="30"></text><text fill="#eeeeee" stroke="none" font-family="Arial" font-size="24px" font-style="normal" font-weight="normal" text-decoration="none" x="400" y="60"></text><text fill="#eeeeee" stroke="none" font-family="Arial" font-size="24px" font-style="normal" font-weight="normal" text-decoration="none" x="400" y="90"></text><text fill="#eeeeee" stroke="none" font-family="Arial" font-size="24px" font-style="normal" font-weight="normal" text-decoration="none" x="400" y="120"></text><text fill="#eeeeee" stroke="none" font-family="Arial" font-size="24px" font-style="normal" font-weight="normal" text-decoration="none" x="400" y="150"></text><text fill="#eeeeee" stroke="none" font-family="Arial" font-size="24px" font-style="normal" font-weight="normal" text-decoration="none" x="600" y="0"></text><text fill="#eeeeee" stroke="none" font-family="Arial" font-size="24px" font-style="normal" font-weight="normal" text-decoration="none" x="600" y="30"></text><text fill="#eeeeee" stroke="none" font-family="Arial" font-size="24px" font-style="normal" font-weight="normal" text-decoration="none" x="600" y="60"></text><text fill="#eeeeee" stroke="none" font-family="Arial" font-size="24px" font-style="normal" font-weight="normal" text-decoration="none" x="600" y="90"></text><text fill="#eeeeee" stroke="none" font-family="Arial" font-size="24px" font-style="normal" font-weight="normal" text-decoration="none" x="600" y="120"></text><text fill="#eeeeee" stroke="none" font-family="Arial" font-size="24px" font-style="normal" font-weight="normal" text-decoration="none" x="600" y="150"></text><text fill="#eeeeee" stroke="none" font-family="Arial" font-size="24px" font-style="normal" font-weight="normal" text-decoration="none" x="800" y="0"></text><text fill="#eeeeee" stroke="none" font-family="Arial" font-size="24px" font-style="normal" font-weight="normal" text-decoration="none" x="800" y="30"></text><text fill="#eeeeee" stroke="none" font-family="Arial" font-size="24px" font-style="normal" font-weight="normal" text-decoration="none" x="800" y="60"></text><text fill="#eeeeee" stroke="none" font-family="Arial" font-size="24px" font-style="normal" font-weight="normal" text-decoration="none" x="800" y="90"></text><text fill="#eeeeee" stroke="none" font-family="Arial" font-size="24px" font-style="normal" font-weight="normal" text-decoration="none" x="800" y="120"></text><text fill="#eeeeee" stroke="none" font-family="Arial" font-size="24px" font-style="normal" font-weight="normal" text-decoration="none" x="800" y="150"></text><g transform="translate(-78,-158) scale(1,1)"><path fill="#ffffff" stroke="none" d="M 113.82 187.2 C 113.82 177.14841664 121.735604736 169 131.5 169 C 141.264395264 169 149.18 177.14841664 149.18 187.2 C 149.18 197.25158335999998 141.264395264 205.4 131.5 205.4 C 121.735604736 205.4 113.82 197.25158335999998 113.82 187.2 Z"/></g><g transform="translate(-78,-158) scale(1,1)"><path fill="none" stroke="#000000" d="M 113.82 187.2 C 113.82 177.14841664 121.735604736 169 131.5 169 C 141.264395264 169 149.18 177.14841664 149.18 187.2 C 149.18 197.25158335999998 141.264395264 205.4 131.5 205.4 C 121.735604736 205.4 113.82 197.25158335999998 113.82 187.2 Z" stroke-miterlimit="10"/></g><g transform="translate(-78,-158) scale(1,1)"><path fill="none" stroke="#000000" d="M 131.5 205.4 L 131.5 240.6" stroke-miterlimit="10"/></g><g transform="translate(-78,-158) scale(1,1)"><path fill="none" stroke="#000000" d="M 112.78 218.6 L 150.22 218.6" stroke-miterlimit="10"/></g><g transform="translate(-78,-158) scale(1,1)"><path fill="none" stroke="#000000" d="M 131.5 240.6 L 105.5 277" stroke-miterlimit="10"/></g><g transform="translate(-78,-158) scale(1,1)"><path fill="none" stroke="#000000" d="M 131.5 240.6 L 157.5 277" stroke-miterlimit="10"/></g><g transform="translate(-78,-158) scale(1,1)"><g><path fill="none" stroke="none"/><text fill="#000000" stroke="none" font-family="Arial" font-size="13px" font-style="normal" font-weight="bold" text-decoration="none" x="108.02001953125" y="297.5">Sistema</text></g></g><g transform="translate(-78,-158) scale(1,1)"><path fill="#C0C0C0" stroke="none" d="M 231 243 C 231 223.1177472 309.1263024 207 405.5 207 C 501.8736976 207 580 223.1177472 580 243 C 580 262.8822528 501.8736976 279 405.5 279 C 309.1263024 279 231 262.8822528 231 243 Z" opacity="0.2"/></g><g transform="translate(-78,-158) scale(1,1)"><path fill="#ffffff" stroke="none" d="M 224 236 C 224 216.1177472 302.1263024 200 398.5 200 C 494.8736976 200 573 216.1177472 573 236 C 573 255.8822528 494.8736976 272 398.5 272 C 302.1263024 272 224 255.8822528 224 236 Z"/></g><g transform="translate(-78,-158) scale(1,1)"><path fill="none" stroke="#000000" d="M 224 236 C 224 216.1177472 302.1263024 200 398.5 200 C 494.8736976 200 573 216.1177472 573 236 C 573 255.8822528 494.8736976 272 398.5 272 C 302.1263024 272 224 255.8822528 224 236 Z" stroke-miterlimit="10"/></g><g transform="translate(-78,-158) scale(1,1)"><g><path fill="none" stroke="none"/><text fill="#000000" stroke="none" font-family="Arial" font-size="13px" font-style="normal" font-weight="bold" text-decoration="none" x="288.66650390625" y="243">Analizar las fotografías de los crotales</text></g></g><g transform="translate(-78,-158) scale(1,1)"><path fill="#C0C0C0" stroke="none" d="M 671 239 C 671 225.7451648 736.5902768 215 817.5 215 C 898.4097232 215 964 225.7451648 964 239 C 964 252.2548352 898.4097232 263 817.5 263 C 736.5902768 263 671 252.2548352 671 239 Z" opacity="0.2"/></g><g transform="translate(-78,-158) scale(1,1)"><path fill="#ffffff" stroke="none" d="M 664 232 C 664 218.7451648 729.5902768 208 810.5 208 C 891.4097232 208 957 218.7451648 957 232 C 957 245.2548352 891.4097232 256 810.5 256 C 729.5902768 256 664 245.2548352 664 232 Z"/></g><g transform="translate(-78,-158) scale(1,1)"><path fill="none" stroke="#000000" d="M 664 232 C 664 218.7451648 729.5902768 208 810.5 208 C 891.4097232 208 957 218.7451648 957 232 C 957 245.2548352 891.4097232 256 810.5 256 C 729.5902768 256 664 245.2548352 664 232 Z" stroke-miterlimit="10"/></g><g transform="translate(-78,-158) scale(1,1)"><g><path fill="none" stroke="none"/><text fill="#000000" stroke="none" font-family="Arial" font-size="13px" font-style="normal" font-weight="bold" text-decoration="none" x="724.5146484375" y="239">Detectar número identificativo</text></g></g><g transform="translate(-78,-158) scale(1,1)"><path fill="none" stroke="#000000" d="M 574 234 L 663 233" stroke-miterlimit="10" stroke-dasharray="3"/></g><g transform="translate(-78,-158) scale(1,1)"><path fill="none" stroke="#000000" d="M 652.8852615506452 237.32343221308517 L 663 233 L 652.79067161666 228.90492808840577" stroke-miterlimit="10"/></g><g transform="translate(-78,-158) scale(1,1)"><g><path fill="none" stroke="none"/><text fill="#000000" stroke="none" font-family="Arial" font-size="13px" font-style="normal" font-weight="normal" text-decoration="none" x="583.5" y="227.5">«include»</text></g></g><g transform="translate(-78,-158) scale(1,1)"><path fill="none" stroke="#000000" d="M 176 235 L 223 235" stroke-miterlimit="10"/></g></g></svg>