<svg version="1.1" xmlns="http://www.w3.org/2000/svg" xmlns:xlink="http://www.w3.org/1999/xlink" width="905" height="155"><defs/><g><text fill="#eeeeee" stroke="none" font-family="Arial" font-size="24px" font-style="normal" font-weight="normal" text-decoration="none" x="0" y="0"></text><text fill="#eeeeee" stroke="none" font-family="Arial" font-size="24px" font-style="normal" font-weight="normal" text-decoration="none" x="0" y="30"></text><text fill="#eeeeee" stroke="none" font-family="Arial" font-size="24px" font-style="normal" font-weight="normal" text-decoration="none" x="0" y="60"></text><text fill="#eeeeee" stroke="none" font-family="Arial" font-size="24px" font-style="normal" font-weight="normal" text-decoration="none" x="0" y="90"></text><text fill="#eeeeee" stroke="none" font-family="Arial" font-size="24px" font-style="normal" font-weight="normal" text-decoration="none" x="0" y="120"></text><text fill="#eeeeee" stroke="none" font-family="Arial" font-size="24px" font-style="normal" font-weight="normal" text-decoration="none" x="0" y="150"></text><text fill="#eeeeee" stroke="none" font-family="Arial" font-size="24px" font-style="normal" font-weight="normal" text-decoration="none" x="200" y="0"></text><text fill="#eeeeee" stroke="none" font-family="Arial" font-size="24px" font-style="normal" font-weight="normal" text-decoration="none" x="200" y="30"></text><text fill="#eeeeee" stroke="none" font-family="Arial" font-size="24px" font-style="normal" font-weight="normal" text-decoration="none" x="200" y="60"></text><text fill="#eeeeee" stroke="none" font-family="Arial" font-size="24px" font-style="normal" font-weight="normal" text-decoration="none" x="200" y="90"></text><text fill="#eeeeee" stroke="none" font-family="Arial" font-size="24px" font-style="normal" font-weight="normal" text-decoration="none" x="200" y="120"></text><text fill="#eeeeee" stroke="none" font-family="Arial" font-size="24px" font-style="normal" font-weight="normal" text-decoration="none" x="200" y="150"></text><text fill="#eeeeee" stroke="none" font-family="Arial" font-size="24px" font-style="normal" font-weight="normal" text-decoration="none" x="400" y="0"></text><text fill="#eeeeee" stroke="none" font-family="Arial" font-size="24px" font-style="normal" font-weight="normal" text-decoration="none" x="400" y="30"></text><text fill="#eeeeee" stroke="none" font-family="Arial" font-size="24px" font-style="normal" font-weight="normal" text-decoration="none" x="400" y="60"></text><text fill="#eeeeee" stroke="none" font-family="Arial" font-size="24px" font-style="normal" font-weight="normal" text-decoration="none" x="400" y="90"></text><text fill="#eeeeee" stroke="none" font-family="Arial" font-size="24px" font-style="normal" font-weight="normal" text-decoration="none" x="400" y="120"></text><text fill="#eeeeee" stroke="none" font-family="Arial" font-size="24px" font-style="normal" font-weight="normal" text-decoration="none" x="400" y="150"></text><text fill="#eeeeee" stroke="none" font-family="Arial" font-size="24px" font-style="normal" font-weight="normal" text-decoration="none" x="600" y="0"></text><text fill="#eeeeee" stroke="none" font-family="Arial" font-size="24px" font-style="normal" font-weight="normal" text-decoration="none" x="600" y="30"></text><text fill="#eeeeee" stroke="none" font-family="Arial" font-size="24px" font-style="normal" font-weight="normal" text-decoration="none" x="600" y="60"></text><text fill="#eeeeee" stroke="none" font-family="Arial" font-size="24px" font-style="normal" font-weight="normal" text-decoration="none" x="600" y="90"></text><text fill="#eeeeee" stroke="none" font-family="Arial" font-size="24px" font-style="normal" font-weight="normal" text-decoration="none" x="600" y="120"></text><text fill="#eeeeee" stroke="none" font-family="Arial" font-size="24px" font-style="normal" font-weight="normal" text-decoration="none" x="600" y="150"></text><text fill="#eeeeee" stroke="none" font-family="Arial" font-size="24px" font-style="normal" font-weight="normal" text-decoration="none" x="800" y="0"></text><text fill="#eeeeee" stroke="none" font-family="Arial" font-size="24px" font-style="normal" font-weight="normal" text-decoration="none" x="800" y="30"></text><text fill="#eeeeee" stroke="none" font-family="Arial" font-size="24px" font-style="normal" font-weight="normal" text-decoration="none" x="800" y="60"></text><text fill="#eeeeee" stroke="none" font-family="Arial" font-size="24px" font-style="normal" font-weight="normal" text-decoration="none" x="800" y="90"></text><text fill="#eeeeee" stroke="none" font-family="Arial" font-size="24px" font-style="normal" font-weight="normal" text-decoration="none" x="800" y="120"></text><text fill="#eeeeee" stroke="none" font-family="Arial" font-size="24px" font-style="normal" font-weight="normal" text-decoration="none" x="800" y="150"></text><g transform="translate(-78,-158) scale(1,1)"><path fill="#ffffff" stroke="none" d="M 113.82 187.2 C 113.82 177.14841664 121.735604736 169 131.5 169 C 141.264395264 169 149.18 177.14841664 149.18 187.2 C 149.18 197.25158335999998 141.264395264 205.4 131.5 205.4 C 121.735604736 205.4 113.82 197.25158335999998 113.82 187.2 Z"/></g><g transform="translate(-78,-158) scale(1,1)"><path fill="none" stroke="#000000" d="M 113.82 187.2 C 113.82 177.14841664 121.735604736 169 131.5 169 C 141.264395264 169 149.18 177.14841664 149.18 187.2 C 149.18 197.25158335999998 141.264395264 205.4 131.5 205.4 C 121.735604736 205.4 113.82 197.25158335999998 113.82 187.2 Z" stroke-miterlimit="10"/></g><g transform="translate(-78,-158) scale(1,1)"><path fill="none" stroke="#000000" d="M 131.5 205.4 L 131.5 240.6" stroke-miterlimit="10"/></g><g transform="translate(-78,-158) scale(1,1)"><path fill="none" stroke="#000000" d="M 112.78 218.6 L 150.22 218.6" stroke-miterlimit="10"/></g><g transform="translate(-78,-158) scale(1,1)"><path fill="none" stroke="#000000" d="M 131.5 240.6 L 105.5 277" stroke-miterlimit="10"/></g><g transform="translate(-78,-158) scale(1,1)"><path fill="none" stroke="#000000" d="M 131.5 240.6 L 157.5 277" stroke-miterlimit="10"/></g><g transform="translate(-78,-158) scale(1,1)"><g><path fill="none" stroke="none"/><text fill="#000000" stroke="none" font-family="Arial" font-size="13px" font-style="normal" font-weight="bold" text-decoration="none" x="109.102294921875" y="297.5">Usuario</text></g></g><g transform="translate(-78,-158) scale(1,1)"><path fill="#C0C0C0" stroke="none" d="M 303 243 C 303 227.5360256 381.1263024 215 477.5 215 C 573.8736976 215 652 227.5360256 652 243 C 652 258.4639744 573.8736976 271 477.5 271 C 381.1263024 271 303 258.4639744 303 243 Z" opacity="0.2"/></g><g transform="translate(-78,-158) scale(1,1)"><path fill="#ffffff" stroke="none" d="M 296 236 C 296 220.5360256 374.1263024 208 470.5 208 C 566.8736976 208 645 220.5360256 645 236 C 645 251.4639744 566.8736976 264 470.5 264 C 374.1263024 264 296 251.4639744 296 236 Z"/></g><g transform="translate(-78,-158) scale(1,1)"><path fill="none" stroke="#000000" d="M 296 236 C 296 220.5360256 374.1263024 208 470.5 208 C 566.8736976 208 645 220.5360256 645 236 C 645 251.4639744 566.8736976 264 470.5 264 C 374.1263024 264 296 251.4639744 296 236 Z" stroke-miterlimit="10"/></g><g transform="translate(-78,-158) scale(1,1)"><g><path fill="none" stroke="none"/><text fill="#000000" stroke="none" font-family="Arial" font-size="13px" font-style="normal" font-weight="bold" text-decoration="none" x="360.66650390625" y="243">Analizar las fotografías de los crotales</text></g></g><g transform="translate(-78,-158) scale(1,1)"><path fill="#C0C0C0" stroke="none" d="M 807 216 C 807 206.6111584 843.936504 199 889.5 199 C 935.063496 199 972 206.6111584 972 216 C 972 225.3888416 935.063496 233 889.5 233 C 843.936504 233 807 225.3888416 807 216 Z" opacity="0.2"/></g><g transform="translate(-78,-158) scale(1,1)"><path fill="#ffffff" stroke="none" d="M 800 209 C 800 199.6111584 836.936504 192 882.5 192 C 928.063496 192 965 199.6111584 965 209 C 965 218.3888416 928.063496 226 882.5 226 C 836.936504 226 800 218.3888416 800 209 Z"/></g><g transform="translate(-78,-158) scale(1,1)"><path fill="none" stroke="#000000" d="M 800 209 C 800 199.6111584 836.936504 192 882.5 192 C 928.063496 192 965 199.6111584 965 209 C 965 218.3888416 928.063496 226 882.5 226 C 836.936504 226 800 218.3888416 800 209 Z" stroke-miterlimit="10"/></g><g transform="translate(-78,-158) scale(1,1)"><g><path fill="none" stroke="none"/><text fill="#000000" stroke="none" font-family="Arial" font-size="13px" font-style="normal" font-weight="bold" text-decoration="none" x="832.642333984375" y="216">Localizar número</text></g></g><g transform="translate(-78,-158) scale(1,1)"><path fill="none" stroke="#000000" d="M 646 224 L 799 214" stroke-miterlimit="10" stroke-dasharray="3"/></g><g transform="translate(-78,-158) scale(1,1)"><path fill="none" stroke="#000000" d="M 789.1335087042663 218.863368124172 L 799 214 L 788.5844165182601 210.46225767827724" stroke-miterlimit="10"/></g><g transform="translate(-78,-158) scale(1,1)"><g><path fill="none" stroke="none"/><text fill="#000000" stroke="none" font-family="Arial" font-size="13px" font-style="normal" font-weight="normal" text-decoration="none" x="686.5" y="214.5">«include»</text></g></g><g transform="translate(-78,-158) scale(1,1)"><path fill="#C0C0C0" stroke="none" d="M 807 280 C 807 270.6111584 845.7273648 263 893.5 263 C 941.2726352 263 980 270.6111584 980 280 C 980 289.3888416 941.2726352 297 893.5 297 C 845.7273648 297 807 289.3888416 807 280 Z" opacity="0.2"/></g><g transform="translate(-78,-158) scale(1,1)"><path fill="#ffffff" stroke="none" d="M 800 273 C 800 263.6111584 838.7273648 256 886.5 256 C 934.2726352 256 973 263.6111584 973 273 C 973 282.3888416 934.2726352 290 886.5 290 C 838.7273648 290 800 282.3888416 800 273 Z"/></g><g transform="translate(-78,-158) scale(1,1)"><path fill="none" stroke="#000000" d="M 800 273 C 800 263.6111584 838.7273648 256 886.5 256 C 934.2726352 256 973 263.6111584 973 273 C 973 282.3888416 934.2726352 290 886.5 290 C 838.7273648 290 800 282.3888416 800 273 Z" stroke-miterlimit="10"/></g><g transform="translate(-78,-158) scale(1,1)"><g><path fill="none" stroke="none"/><text fill="#000000" stroke="none" font-family="Arial" font-size="13px" font-style="normal" font-weight="bold" text-decoration="none" x="834.474609375" y="280">Identificar número</text></g></g><g transform="translate(-78,-158) scale(1,1)"><path fill="none" stroke="#000000" d="M 646 252 L 799 265" stroke-miterlimit="10" stroke-dasharray="3"/></g><g transform="translate(-78,-158) scale(1,1)"><path fill="none" stroke="#000000" d="M 788.5174248400773 268.33400930061254 L 799 265 L 789.2301994351188 259.9452006051231" stroke-miterlimit="10"/></g><g transform="translate(-78,-158) scale(1,1)"><g><path fill="none" stroke="none"/><text fill="#000000" stroke="none" font-family="Arial" font-size="13px" font-style="normal" font-weight="normal" text-decoration="none" x="707.5" y="246.5">«include»</text></g></g><g transform="translate(-78,-158) scale(1,1)"><path fill="none" stroke="#000000" d="M 176 235 L 295 235" stroke-miterlimit="10"/></g></g></svg>